<?xml version="1.0" encoding="UTF-8"?><svg id="Ebene_2" xmlns="http://www.w3.org/2000/svg" viewBox="0 0 512.54 230.4"><defs><style>.cls-1{fill:#fff;}</style></defs><g id="Ebene_1-2"><g><g><path class="cls-1" d="M0,59.36c0-5.57,2.48-8.51,8.21-8.51h56.35v10.84c0,5.57-2.94,8.21-8.82,8.21H22.45v20.59H58.83v17.8H22.45v22.76h42.88v10.84c0,5.57-2.94,8.05-8.67,8.05H8.21c-5.73,0-8.21-2.94-8.21-8.51V59.36Z"/><path class="cls-1" d="M74.46,59.21c0-5.42,2.32-8.36,8.05-8.36h32.67c23.22,0,36.23,12.85,36.23,31.89,0,13.78-6.81,23.84-19.82,28.49l22.91,34.52c.77,1.39,1.39,2.79,1.39,4.18h-20.13c-4.18,0-5.73-.31-8.36-4.49l-19.04-30.65h-11.46v35.14h-22.45V59.21Zm22.45,10.68v26.01h16.72c9.44,0,15.95-3.41,15.95-13.16s-6.5-12.85-15.95-12.85h-16.72Z"/><path class="cls-1" d="M191.81,50.08c19.97,0,31.43,2.17,31.43,10.99v8.52h-29.26c-8.67,0-12.08,2.63-12.08,7.59,0,13.47,46.6,11.15,46.6,44.28,0,15.79-9.75,29.26-38.08,29.26-17.8,0-32.51-2.48-32.51-10.99v-8.52h33.6c8.82,0,13.16-2.79,13.16-8.51,0-14.55-46.44-12.39-46.44-46.14,0-14.86,10.53-26.47,33.6-26.47Z"/><path class="cls-1" d="M296.46,50.85v11.15c0,5.42-3.1,7.9-8.82,7.9h-14.09v80.04h-22.45V69.89h-22.91v-11.15c0-5.42,2.94-7.9,8.67-7.9h59.6Z"/><path class="cls-1" d="M303.58,59.36c0-5.57,2.48-8.51,8.21-8.51h56.35v10.84c0,5.57-2.94,8.21-8.82,8.21h-33.29v20.59h36.38v17.8h-36.38v22.76h42.88v10.84c0,5.57-2.94,8.05-8.67,8.05h-48.46c-5.73,0-8.21-2.94-8.21-8.51V59.36Z"/></g><g><path class="cls-1" d="M397.08,123.39h88.43v-11.87h-88.26c-.07-1.37-.03-28.14-.21-40.51-.15-10.55,7.05-20.82,20.66-20.59,24.8,.41,49.63,.41,74.43-.02,10.69-.19,20.42,7.66,20.41,20.43,0,1.78-.01,3.96-.01,6.27h-88.51v11.59l88.51-.02c0,1.59,.03,28.4,0,40.87-.04,12.55-8.08,20.44-20.78,20.45-24.6,0-49.2,0-73.8,0-12.8,0-20.81-7.98-20.86-20.77,0-1.78,0-3.56,0-5.83"/><path class="cls-1" d="M454.91,38.03c-10.46,0-18.92-8.62-18.86-19.2C436.1,8.43,444.6-.02,454.98,0c10.37,.02,18.85,8.51,18.87,18.9,.02,10.56-8.47,19.14-18.94,19.13"/></g><g><path class="cls-1" d="M.03,176.22c0-2.91,1.18-4.55,4.19-4.55H20.7c13.3,0,20.49,5.1,20.49,15.48,0,6.28-3.01,10.93-9.38,12.84,7.74,2,11.56,6.74,11.56,14.02,0,10.65-7.19,15.94-20.49,15.94H4.21c-3,0-4.19-1.55-4.19-4.55v-49.17Zm20.67,19.85c6.19,0,10.38-1.73,10.38-7.83s-4.46-7.92-11.11-7.92H10.04v15.75h10.65Zm1.55,25.23c6.56,0,11.02-1.91,11.02-8.56,0-6.28-4.46-8.47-11.02-8.47H10.04v17.03h12.2Z"/><path class="cls-1" d="M79.89,229.94c-3.28,0-4.55-1.73-4.55-3.92v-1.28c-3.92,4.1-9.02,5.65-13.29,5.65-8.65,0-14.02-5.01-14.02-12.75,0-11.38,12.48-14.48,27.32-15.12v-3.82c0-5.74-4.1-7.47-9.93-7.47h-14.02v-2.64c0-4.37,5.46-4.64,15.57-4.64,11.29,0,17.94,4.74,17.94,14.3v31.69h-5.01Zm-4.55-21.67c-12.48,.18-17.21,2.64-17.21,8.01,0,4.74,3.46,6.37,8.1,6.37,3.37,0,6.83-1.27,9.11-3.28v-11.11Z"/><path class="cls-1" d="M94.91,229.94v-45.53h5.01c3.37,0,4.55,1.73,4.55,3.92v1.37c3.92-4.1,8.65-5.74,13.39-5.74,9.47,0,14.02,5.74,14.02,14.12v31.87h-9.56v-31.42c0-5.01-3.19-7.01-8.29-7.01-3.46,0-7.01,1.46-9.56,3.37v35.06h-9.56Z"/><path class="cls-1" d="M151.55,204.72l17.12-18.21c1.18-1.64,1.91-2.09,3.92-2.09h8.1c0,.73-.27,1.37-.82,2l-18.76,19.31,18.85,22.22c.55,.64,.73,1.37,.73,2h-8.83c-2.19,0-2.91-.82-4.28-2.73l-16.03-18.94v21.67h-9.56v-55.55c0-2.91,1.09-4.55,4.1-4.55h5.46v34.88Z"/></g></g></g></svg>